:FULLY-SPECIFIED
:FORCE-ALL-JOINTS-BE-3DOF
:DEGREES
421
root 10.0923 16.7544 23.3715 8.16413 0.340079 -4.72743
lfemur -44.1295 2.46703 -18.6683
ltibia 34.4534 0 0
lfoot 1.12919 7.77966 0
ltoes 1.92085 0 0
rfemur 24.8603 3.02752 28.3196
rtibia 7.31528e-14 0 0
rfoot 9.41801 3.91051 0
rtoes -22.3075 0 0
lowerback -8.77415 2.76314 1.22441
upperback -1.79946 3.49013 2.17307
thorax 2.98216 1.74173 1.95036
lowerneck -19.4868 -6.95681 -14.6684
upperneck 21.9234 -9.00444 14.2777
head 11.7761 -3.65347 6.34443
lclavicle -6.32539e-15 -5.96354e-15 0
lhumerus -51.0294 -7.1516 92.5795
lradius 22.4522 0 0
lwrist 0.884618 0 0
lhand -7.18723 -22.5429 0
lfingers 7.12502 0 0
lthumb 18.6907 6.57915 0
rclavicle -6.32539e-15 -5.96354e-15 0
rhumerus -36.1808 10.0838 -88.6768
rradius 33.0314 0 0
rwrist -14.1029 0 0
rhand -29.0392 -24.6137 0
rfingers 7.12502 0 0
rthumb -2.3896 -54.58 0
422
root 10.1263 16.7844 23.5327 8.14443 0.342262 -4.29141
lfemur -43.7224 2.33848 -19.2761
ltibia 34.9292 -0 0
lfoot 0.687948 7.54951 -0.000736377
ltoes 3.1574 -0 0
rfemur 23.5681 2.62553 27.4629
rtibia 4.59593 0 0
rfoot 10.4286 4.12323 0.0239204
rtoes -21.8693 0 0
lowerback -8.65187 2.72109 0.92987
upperback -1.88982 3.47109 2.01991
thorax 2.81256 1.73146 1.94287
lowerneck -19.4886 -6.96588 -14.7237
upperneck 21.961 -8.99267 14.2374
head 11.789 -3.65758 6.34202
lclavicle -1.25117e-14 -4.53892e-15 0
lhumerus -50.4354 -6.71926 92.0821
lradius 22.0158 -0 0
lwrist 0.0953282 0 0
lhand -7.25415 -22.5872 -0.0027004
lfingers 7.12502 0 0
lthumb 18.6264 6.54216 -0.00228337
rclavicle -1.25117e-14 -4.53892e-15 0
rhumerus -36.7911 9.7365 -88.7514
rradius 32.5891 -0 0
rwrist -13.952 0 0
rhand -28.6954 -25.3095 -0.0141756
rfingers 7.12502 0 0
rthumb -2.0576 -55.2773 -0.0137268
423
root 10.1603 16.8144 23.6938 8.10216 0.225705 -3.78301
lfemur -43.1071 2.2045 -19.9168
ltibia 35.1519 -0 0
lfoot 0.0631324 7.48205 -0.00285472
ltoes 3.96328 -0 0
rfemur 21.6049 2.16181 26.417
rtibia 9.19187 0 0
rfoot 11.1906 4.6318 0.0386749
rtoes -20.7581 0 0
lowerback -8.51916 2.69859 0.566954
upperback -1.93672 3.4824 1.85757
thorax 2.67805 1.73585 1.96907
lowerneck -19.555 -6.96009 -14.7361
upperneck 21.9882 -8.94802 14.1457
head 11.7999 -3.6468 6.31696
lclavicle -1.86979e-14 -3.11429e-15 0
lhumerus -49.7069 -6.16061 91.5181
lradius 21.5473 -0 0
lwrist -0.791275 0 0
lhand -7.18159 -22.5097 -0.0051377
lfingers 7.12502 0 0
lthumb 18.6963 6.61413 -0.00432114
rclavicle -1.86979e-14 -3.11429e-15 0
rhumerus -37.3664 9.38328 -88.7714
rradius 32.2051 -0 0
rwrist -13.756 0 0
rhand -28.158 -26.3253 -0.0278123
rfingers 7.12502 0 0
rthumb -1.53849 -56.2957 -0.0269333
424
root 10.1943 16.8444 23.855 8.0457 0.0269316 -3.23827
lfemur -42.348 2.08893 -20.5715
ltibia 35.1866 -0 0
lfoot -0.67337 7.51867 -0.00437334
ltoes 4.44237 -0 0
rfemur 19.2276 1.65226 25.2831
rtibia 13.7878 0 0
rfoot 11.7978 5.28482 0.0420827
rtoes -19.2463 0 0
lowerback -8.37588 2.68944 0.170488
upperback -1.97132 3.51263 1.69331
thorax 2.54835 1.74983 2.01452
lowerneck -19.6179 -6.9358 -14.7281
upperneck 22.0073 -8.87527 14.0273
head 11.7996 -3.6248 6.28238
lclavicle -2.48842e-14 -1.68967e-15 0
lhumerus -48.9294 -5.53258 90.9339
lradius 21.0776 -0 0
lwrist -1.71223 0 0
lhand -7.05226 -22.3769 -0.00693383
lfingers 7.12502 0 0
lthumb 18.8208 6.73591 -0.00582041
rclavicle -2.48842e-14 -1.68967e-15 0
rhumerus -37.9428 9.05451 -88.7687
rradius 31.8668 -0 0
rwrist -13.5462 0 0
rhand -27.5375 -27.4689 -0.0316649
rfingers 7.12502 0 0
rthumb -0.939182 -57.4422 -0.0306659
425
root 10.2282 16.8744 24.0161 7.98411 -0.217735 -2.69327
lfemur -41.5103 2.01382 -21.2202
ltibia 35.0981 -0 0
lfoot -1.44967 7.60072 -0.00398261
ltoes 4.69859 -0 0
rfemur 16.6903 1.1272 24.1568
rtibia 18.3837 0 0
rfoot 12.3435 5.93098 0.0351
rtoes -17.6063 0 0
lowerback -8.2219 2.68727 -0.224725
upperback -2.02468 3.55015 1.53439
thorax 2.39319 1.76833 2.06482
lowerneck -19.6092 -6.88944 -14.7222
upperneck 22.0207 -8.77919 13.9069
head 11.7787 -3.59527 6.25138
lclavicle -3.10705e-14 -2.65047e-16 0
lhumerus -48.186 -4.89476 90.3724
lradius 20.6375 -0 0
lwrist -2.60459 0 0
lhand -6.94884 -22.255 -0.00743377
lfingers 7.12502 0 0
lthumb 18.9203 6.84842 -0.0062432
rclavicle -3.10705e-14 -2.65047e-16 0
rhumerus -38.5557 8.77989 -88.7757
rradius 31.5617 -0 0
rwrist -13.354 0 0
rhand -26.9449 -28.5477 -0.0236245
rfingers 7.12502 0 0
rthumb -0.366839 -58.5239 -0.022881
426
root 10.2622 16.9044 24.1773 7.92739 -0.472225 -2.18421
lfemur -40.6596 1.99914 -21.8423
ltibia 34.9514 -0 0
lfoot -2.19387 7.66956 -0.00190188
ltoes 4.83583 -0 0
rfemur 14.2435 0.634317 23.1254
rtibia 22.9797 0 0
rfoot 12.9214 6.41904 0.0198296
rtoes -16.1108 0 0
lowerback -8.05697 2.68554 -0.583909
upperback -2.12781 3.58321 1.38805
thorax 2.18226 1.78624 2.10557
lowerneck -19.4609 -6.81739 -14.7404
upperneck 22.031 -8.66456 13.8093
head 11.7282 -3.5619 6.23706
lclavicle -3.72567e-14 1.15958e-15 0
lhumerus -47.5576 -4.30938 89.8732
lradius 20.2576 -0 0
lwrist -3.40539 0 0
lhand -6.95402 -22.2104 -0.0054559
lfingers 7.12502 0 0
lthumb 18.9153 6.89254 -0.00458929
rclavicle -3.72567e-14 1.15958e-15 0
rhumerus -39.2406 8.58845 -88.8249
rradius 31.277 -0 0
rwrist -13.2104 0 0
rhand -26.4911 -29.3694 -0.00948838
rfingers 7.12502 0 0
rthumb 0.0714622 -59.3479 -0.00919118
427
root 10.2962 16.9344 24.3384 7.8865 -0.70072 -1.74747
lfemur -39.8618 2.06285 -22.4164
ltibia 34.8114 0 0
lfoot -2.83409 7.66656 0
ltoes 4.958 0 0
rfemur 12.1345 0.237285 22.2678
rtibia 27.5756 0 0
rfoot 13.6249 6.59772 0
rtoes -15.032 0 0
lowerback -7.88079 2.67751 -0.872319
upperback -2.31164 3.59992 1.26157
thorax 1.88527 1.79837 2.12238
lowerneck -19.105 -6.71579 -14.8047
upperneck 22.0409 -8.53618 13.7591
head 11.6388 -3.52834 6.25251
lclavicle -4.3443e-14 2.5842e-15 0
lhumerus -47.1228 -3.8407 89.4726
lradius 19.9687 0 0
lwrist -4.05167 0 0
lhand -7.1505 -22.3095 0
lfingers 7.12502 0 0
lthumb 18.7261 6.80914 0
rclavicle -4.3443e-14 2.5842e-15 0
rhumerus -40.0329 8.50823 -88.9495
rradius 31.0002 0 0
rwrist -13.1469 0 0
rhand -26.2866 -29.7417 0
rfingers 7.12502 0 0
rthumb 0.268929 -59.7213 0
428
root 10.3232 16.9658 24.4816 7.86159 -0.933869 -1.36626
lfemur -39.085 2.2341 -22.9673
ltibia 34.6457 -0 0
lfoot -3.38441 7.59714 0.000791703
ltoes 5.02295 -0 0
rfemur 10.3513 -0.0230786 21.541
rtibia 31.2101 -0 0
rfoot 14.6122 6.50865 -0.0276844
rtoes -14.3983 0 0
lowerback -7.69396 2.6721 -1.09831
upperback -2.62003 3.61274 1.14826
thorax 1.45667 1.81203 2.11187
lowerneck -18.3976 -6.56414 -14.9457
upperneck 22.0396 -8.38187 13.7788
head 11.4783 -3.49448 6.31426
lclavicle -3.76458e-14 8.614e-16 0
lhumerus -46.9843 -3.47374 89.1576
lradius 19.7943 -0 0
lwrist -4.54207 0 0
lhand -7.58735 -22.599 0.00844847
lfingers 7.12502 0 0
lthumb 18.3056 6.55592 0.00718562
rclavicle -3.76458e-14 8.614e-16 0
rhumerus -41.032 8.58039 -89.1923
rradius 30.7229 -0 0
rwrist -13.2098 0 0
rhand -26.3071 -29.6486 0.0100104
rfingers 7.12502 0 0
rthumb 0.249032 -59.6303 0.00986435
429
root 10.3502 16.9972 24.6247 7.84382 -1.20665 -1.00817
lfemur -38.2718 2.5044 -23.5144
ltibia 34.3958 -0 0
lfoot -3.90515 7.50926 0.00128295
ltoes 4.93912 -0 0
rfemur 8.68941 -0.178963 20.8642
rtibia 34.5225 -0 0
rfoot 15.84 6.28073 -0.0614489
rtoes -13.9972 0 0
lowerback -7.49689 2.67635 -1.29131
upperback -3.03701 3.63331 1.04085
thorax 0.911575 1.83264 2.08476
lowerneck -17.365 -6.3591 -15.1496
upperneck 22.0231 -8.19538 13.8531
head 11.2478 -3.4571 6.41506
lclavicle -3.18485e-14 -8.614e-16 0
lhumerus -47.0973 -3.15792 88.8917
lradius 19.7144 -0 0
lwrist -4.92668 0 0
lhand -8.20825 -23.0353 0.0162094
lfingers 7.12502 0 0
lthumb 17.708 6.17166 0.0138519
rclavicle -3.18485e-14 -8.614e-16 0
rhumerus -42.2311 8.7865 -89.54
rradius 30.4535 -0 0
rwrist -13.3834 0 0
rhand -26.4592 -29.2407 0.0262031
rfingers 7.12502 0 0
rthumb 0.102045 -59.2263 0.0259076
